<svg preserveAspectRatio="xMidYMid" viewBox="0 0 24 24" style="width: 18px; height: 18px;">
    <path d="M12 24C5.38 24 0 18.62 0 12S5.38 0 12 0s12 5.38 12 12-5.38 12-12 12zm0-22C6.5 2 2 6.5 2 12s4.5 10 10 10 10-4.5 10-10S17.5 2 12 2zm0 18c-2.9 0-5.56-1.75-6.9-4.57-.24-.5-.03-1.1.47-1.33.5-.24 1.1-.03 1.33.47C7.9 16.67 9.86 18 12 18c2.15 0 4.1-1.3 5.1-3.43.23-.5.83-.7 1.33-.47.5.23.7.83.47 1.33C17.58 18.25 14.93 20 12 20zm4-8c-1.1 0-2-.9-2-2s.9-2 2-2 2 .9 2 2-.9 2-2 2zm-8 0c-1.1 0-2-.9-2-2s.9-2 2-2 2 .9 2 2-.9 2-2 2z" fill="#fff">
    </path>
</svg>
